<svg width="16" height="14" viewBox="0 0 16 14" fill="none" xmlns="http://www.w3.org/2000/svg">
<path d="M7.52241 1.26785L1.06806 12.2297C1.01443 12.3221 0.991648 12.4277 1.00273 12.5327C1.01382 12.6377 1.05825 12.7369 1.13012 12.8173C1.20198 12.8976 1.29787 12.9552 1.40501 12.9824C1.51215 13.0096 1.62547 13.0052 1.72987 12.9696L7.81578 10.9057C7.93394 10.8603 8.06606 10.8603 8.18422 10.9057L14.2701 12.9696C14.3745 13.0052 14.4878 13.0096 14.595 12.9824C14.7021 12.9552 14.798 12.8976 14.8699 12.8173C14.9417 12.7369 14.9862 12.6377 14.9973 12.5327C15.0084 12.4277 14.9856 12.3221 14.9319 12.2297L8.47759 1.26785C8.43039 1.1867 8.3612 1.11905 8.27721 1.07195C8.19322 1.02484 8.0975 1 8 1C7.9025 1 7.80678 1.02484 7.72279 1.07195C7.6388 1.11905 7.56961 1.1867 7.52241 1.26785Z" stroke="#23262C" stroke-width="1.5" stroke-linecap="round" stroke-linejoin="round"/>
</svg>
