<svg width="16" height="18" viewBox="0 0 16 18" fill="none" xmlns="http://www.w3.org/2000/svg">
<path d="M10.4794 4.52138L4.89146 10.3915C4.72939 10.5559 4.60012 10.7526 4.51118 10.9701C4.42225 11.1876 4.37544 11.4215 4.37348 11.6582C4.37152 11.8949 4.41446 12.1296 4.49978 12.3487C4.5851 12.5677 4.7111 12.7668 4.87043 12.9342C5.02976 13.1015 5.21922 13.2339 5.42777 13.3235C5.63631 13.4131 5.85976 13.4583 6.08508 13.4562C6.31039 13.4541 6.53306 13.405 6.74009 13.3115C6.94712 13.2181 7.13437 13.0823 7.2909 12.9121L12.7329 7.04197C13.3511 6.36957 13.6932 5.46899 13.6855 4.53421C13.6777 3.59943 13.3208 2.70524 12.6916 2.04422C12.0623 1.3832 11.2111 1.00826 10.3213 1.00013C9.43141 0.992012 8.57412 1.35136 7.93404 2.00079L2.49117 7.86999C1.53639 8.87298 1 10.2333 1 11.6518C1 13.0702 1.53639 14.4305 2.49117 15.4335C3.44596 16.4365 4.74092 17 6.09118 17C7.44145 17 8.73641 16.4365 9.69119 15.4335L15 9.86917" stroke="white" stroke-opacity="0.5" stroke-width="1.5" stroke-linecap="round" stroke-linejoin="round"/>
</svg>
