<svg width="18" height="18" viewBox="0 0 18 18" fill="none" xmlns="http://www.w3.org/2000/svg">
<g opacity="0.8">
<path d="M18 0H0V5.68421H0.9V16.1053C0.9 16.6078 1.08964 17.0897 1.42721 17.445C1.76477 17.8004 2.22261 18 2.7 18H15.3C15.7774 18 16.2352 17.8004 16.5728 17.445C16.9104 17.0897 17.1 16.6078 17.1 16.1053V5.68421H18V0ZM1.8 1.89474H16.2V3.78947H1.8V1.89474ZM15.3 16.1053H2.7V5.68421H15.3V16.1053ZM6.3 7.57895H11.7C11.7 8.08146 11.5104 8.5634 11.1728 8.91873C10.8352 9.27406 10.3774 9.47368 9.9 9.47368H8.1C7.62261 9.47368 7.16477 9.27406 6.82721 8.91873C6.48964 8.5634 6.3 8.08146 6.3 7.57895Z" fill="white"/>
</g>
</svg>
