<svg width="32" height="32" viewBox="0 0 32 32" fill="none" xmlns="http://www.w3.org/2000/svg">
<path d="M21.5385 11.5H10.4615C10.2066 11.5 10 11.7239 10 12V13.5C10 13.7761 10.2066 14 10.4615 14H21.5385C21.7934 14 22 13.7761 22 13.5V12C22 11.7239 21.7934 11.5 21.5385 11.5Z" stroke="white" stroke-width="1.5" stroke-linecap="round" stroke-linejoin="round"/>
<path d="M21.0767 13.9999V19.9999C21.0767 20.1325 21.0281 20.2597 20.9415 20.3534C20.855 20.4472 20.7376 20.4999 20.6152 20.4999H11.3844C11.262 20.4999 11.1446 20.4472 11.058 20.3534C10.9715 20.2597 10.9229 20.1325 10.9229 19.9999V13.9999" stroke="white" stroke-width="1.5" stroke-linecap="round" stroke-linejoin="round"/>
<path d="M14.6152 16.5H17.3845" stroke="white" stroke-width="1.5" stroke-linecap="round" stroke-linejoin="round"/>
<rect x="1" y="1" width="30" height="30" rx="5" stroke="white" stroke-opacity="0.1" stroke-width="2"/>
</svg>
