<svg width="20" height="18" viewBox="0 0 20 18" fill="none" xmlns="http://www.w3.org/2000/svg">
<path d="M7.23077 13H1.51923C1.38152 13 1.24945 12.9473 1.15208 12.8536C1.0547 12.7598 1 12.6326 1 12.5V7C1 5.4087 1.65645 3.88258 2.82495 2.75736C3.99344 1.63214 5.57826 1 7.23077 1V1C8.88327 1 10.4681 1.63214 11.6366 2.75736C12.8051 3.88258 13.4615 5.4087 13.4615 7V7C13.4615 8.5913 12.8051 10.1174 11.6366 11.2426C10.4681 12.3679 8.88327 13 7.23077 13V13Z" stroke="white" stroke-width="1.5" stroke-linecap="round" stroke-linejoin="round"/>
<path d="M6.89307 13C7.32265 14.17 8.11843 15.183 9.17078 15.8994C10.2231 16.6158 11.4803 17.0003 12.769 17H18.4806C18.6183 17 18.7503 16.9473 18.8477 16.8535C18.9451 16.7598 18.9998 16.6326 18.9998 16.5V11C19.002 9.46425 18.3918 7.98634 17.2951 6.87136C16.1985 5.75638 14.6991 5.08946 13.1065 5.0083" stroke="white" stroke-width="1.5" stroke-linecap="round" stroke-linejoin="round"/>
</svg>
