<svg width="10" height="10" viewBox="0 0 10 10" fill="none" xmlns="http://www.w3.org/2000/svg">
<path d="M9.5625 1.3125C9.80412 1.07087 9.80412 0.679124 9.5625 0.4375C9.32088 0.195875 8.92912 0.195875 8.6875 0.4375L5.70711 3.41789C5.31658 3.80842 4.68342 3.80842 4.29289 3.41789L1.3125 0.4375C1.07087 0.195875 0.679124 0.195875 0.4375 0.4375C0.195875 0.679124 0.195875 1.07088 0.4375 1.3125L3.41789 4.29289C3.80842 4.68342 3.80842 5.31658 3.41789 5.70711L0.4375 8.6875C0.195875 8.92912 0.195875 9.32088 0.4375 9.5625C0.679124 9.80412 1.07088 9.80412 1.3125 9.5625L4.29289 6.58211C4.68342 6.19158 5.31658 6.19158 5.70711 6.58211L8.6875 9.5625C8.92912 9.80412 9.32088 9.80412 9.5625 9.5625C9.80412 9.32088 9.80412 8.92912 9.5625 8.6875L6.58211 5.70711C6.19158 5.31658 6.19158 4.68342 6.58211 4.29289L9.5625 1.3125Z" fill="white"/>
</svg>
