<svg width="63" height="19" viewBox="0 0 63 19" fill="none" xmlns="http://www.w3.org/2000/svg">
<path d="M31.8594 15.1875C34.3516 15.1875 36.2188 13.6797 36.5703 11.4375L36.5781 11.3594H34.8438L34.8203 11.4297C34.3984 12.8594 33.3594 13.6406 31.8594 13.6406C29.7734 13.6406 28.4219 11.9688 28.4219 9.35938V9.35156C28.4219 6.74219 29.7656 5.08594 31.8594 5.08594C33.375 5.08594 34.4219 5.89062 34.7969 7.21094L34.8438 7.36719H36.5781L36.5625 7.29688C36.2109 5.07031 34.3438 3.53906 31.8594 3.53906C28.6641 3.53906 26.6328 5.77344 26.6328 9.35156V9.35938C26.6328 12.9375 28.6641 15.1875 31.8594 15.1875ZM41.4922 15.1641C43.8438 15.1641 45.3906 13.5391 45.3906 10.8906V10.875C45.3906 8.24219 43.8281 6.625 41.4844 6.625C39.1484 6.625 37.5938 8.25 37.5938 10.875V10.8906C37.5938 13.5312 39.1328 15.1641 41.4922 15.1641ZM41.5 13.75C40.1797 13.75 39.3203 12.7109 39.3203 10.8906V10.875C39.3203 9.07812 40.1875 8.03906 41.4844 8.03906C42.8047 8.03906 43.6641 9.07812 43.6641 10.875V10.8906C43.6641 12.7031 42.8203 13.75 41.5 13.75ZM46.6953 17.7344H48.3828V13.6172H48.4219C48.9062 14.5703 49.8516 15.1641 51.0156 15.1641C53.0781 15.1641 54.4297 13.5156 54.4297 10.8984V10.8906C54.4297 8.26562 53.0859 6.625 50.9922 6.625C49.8203 6.625 48.9141 7.21875 48.4219 8.19531H48.3828V6.78125H46.6953V17.7344ZM50.5547 13.7109C49.2812 13.7109 48.375 12.6016 48.375 10.8984V10.8906C48.375 9.17969 49.2734 8.07031 50.5547 8.07031C51.875 8.07031 52.7109 9.14062 52.7109 10.8906V10.8984C52.7109 12.6328 51.8828 13.7109 50.5547 13.7109ZM56.3984 17.7422C58.0078 17.7422 58.8672 17.0859 59.4766 15.3828L62.5391 6.78125H60.7578L58.6875 13.4688H58.6328L56.5625 6.78125H54.7344L57.7266 15.0078L57.5859 15.3984C57.3047 16.1953 56.8672 16.4062 56.0703 16.4062C55.8438 16.4062 55.6484 16.375 55.5156 16.3438V17.6641C55.7188 17.7031 56.0703 17.7422 56.3984 17.7422Z" fill="white"/>
<path d="M15.3333 2H4.66667C4.48986 2 4.32029 2.07024 4.19526 2.19526C4.07024 2.32029 4 2.48986 4 2.66667V6H0.666667C0.489856 6 0.320287 6.07024 0.195262 6.19526C0.070238 6.32029 0 6.48986 0 6.66667V17.3333C0 17.5101 0.070238 17.6797 0.195262 17.8047C0.320287 17.9298 0.489856 18 0.666667 18H11.3333C11.5101 18 11.6797 17.9298 11.8047 17.8047C11.9298 17.6797 12 17.5101 12 17.3333V14H15.3333C15.5101 14 15.6797 13.9298 15.8047 13.8047C15.9298 13.6797 16 13.5101 16 13.3333V2.66667C16 2.48986 15.9298 2.32029 15.8047 2.19526C15.6797 2.07024 15.5101 2 15.3333 2ZM14.6667 12.6667H12V6.66667C12 6.48986 11.9298 6.32029 11.8047 6.19526C11.6797 6.07024 11.5101 6 11.3333 6H5.33333V3.33333H14.6667V12.6667Z" fill="#767B7F"/>
</svg>
