<svg width="70" height="19" viewBox="0 0 70 19" fill="none" xmlns="http://www.w3.org/2000/svg">
<path d="M26.0391 15H30.0156C33.375 15 35.3516 12.9062 35.3516 9.34375V9.32812C35.3516 5.78125 33.3594 3.72656 30.0156 3.72656H26.0391V15ZM27.7891 13.4844V5.23438H29.8516C32.2266 5.23438 33.5625 6.69531 33.5625 9.34375V9.35938C33.5625 12.0234 32.2422 13.4844 29.8516 13.4844H27.7891ZM40.3281 15.1641C42.3203 15.1641 43.5859 13.9766 43.8516 12.6719L43.8672 12.5859H42.2656L42.2422 12.6484C42.0312 13.2656 41.3672 13.7812 40.3672 13.7812C39.0234 13.7812 38.1719 12.875 38.1406 11.3203H43.9609V10.75C43.9609 8.28125 42.5469 6.625 40.2422 6.625C37.9375 6.625 36.4531 8.34375 36.4531 10.9141V10.9219C36.4531 13.5156 37.9141 15.1641 40.3281 15.1641ZM40.25 8.00781C41.3516 8.00781 42.1484 8.70312 42.2891 10.125H38.1641C38.3125 8.75 39.1562 8.00781 40.25 8.00781ZM45.3359 15H47.0234V3.72656H45.3359V15ZM52.2656 15.1641C54.2578 15.1641 55.5234 13.9766 55.7891 12.6719L55.8047 12.5859H54.2031L54.1797 12.6484C53.9688 13.2656 53.3047 13.7812 52.3047 13.7812C50.9609 13.7812 50.1094 12.875 50.0781 11.3203H55.8984V10.75C55.8984 8.28125 54.4844 6.625 52.1797 6.625C49.875 6.625 48.3906 8.34375 48.3906 10.9141V10.9219C48.3906 13.5156 49.8516 15.1641 52.2656 15.1641ZM52.1875 8.00781C53.2891 8.00781 54.0859 8.70312 54.2266 10.125H50.1016C50.25 8.75 51.0938 8.00781 52.1875 8.00781ZM60.0938 15.1641C60.4375 15.1641 60.7578 15.125 60.9531 15.0938V13.7891C60.8281 13.8047 60.6797 13.8203 60.5 13.8203C59.7891 13.8203 59.4141 13.5703 59.4141 12.7344V8.125H60.9531V6.78125H59.4141V4.64062H57.6875V6.78125H56.5078V8.125H57.6875V12.8359C57.6875 14.4766 58.4688 15.1641 60.0938 15.1641ZM65.6562 15.1641C67.6484 15.1641 68.9141 13.9766 69.1797 12.6719L69.1953 12.5859H67.5938L67.5703 12.6484C67.3594 13.2656 66.6953 13.7812 65.6953 13.7812C64.3516 13.7812 63.5 12.875 63.4688 11.3203H69.2891V10.75C69.2891 8.28125 67.875 6.625 65.5703 6.625C63.2656 6.625 61.7812 8.34375 61.7812 10.9141V10.9219C61.7812 13.5156 63.2422 15.1641 65.6562 15.1641ZM65.5781 8.00781C66.6797 8.00781 67.4766 8.70312 67.6172 10.125H63.4922C63.6406 8.75 64.4844 8.00781 65.5781 8.00781Z" fill="#ED4C5C"/>
<path d="M12 6H1" stroke="#ED4C5C" stroke-width="1.5" stroke-linecap="round" stroke-linejoin="round"/>
<path d="M5 9V13" stroke="#ED4C5C" stroke-width="1.5" stroke-linecap="round" stroke-linejoin="round"/>
<path d="M8 9V13" stroke="#ED4C5C" stroke-width="1.5" stroke-linecap="round" stroke-linejoin="round"/>
<path d="M11 6V15.5C11 15.6326 10.9473 15.7598 10.8536 15.8536C10.7598 15.9473 10.6326 16 10.5 16H2.5C2.36739 16 2.24021 15.9473 2.14645 15.8536C2.05268 15.7598 2 15.6326 2 15.5V6" stroke="#ED4C5C" stroke-width="1.5" stroke-linecap="round" stroke-linejoin="round"/>
<path d="M9 6V5C9 4.73478 8.89464 4.48043 8.70711 4.29289C8.51957 4.10536 8.26522 4 8 4H5C4.73478 4 4.48043 4.10536 4.29289 4.29289C4.10536 4.48043 4 4.73478 4 5V6" stroke="#ED4C5C" stroke-width="1.5" stroke-linecap="round" stroke-linejoin="round"/>
</svg>
