<svg width="81" height="19" viewBox="0 0 81 19" fill="none" xmlns="http://www.w3.org/2000/svg">
<path d="M27.0391 15H31.0156C34.375 15 36.3516 12.9062 36.3516 9.34375V9.32812C36.3516 5.78125 34.3594 3.72656 31.0156 3.72656H27.0391V15ZM28.7891 13.4844V5.23438H30.8516C33.2266 5.23438 34.5625 6.69531 34.5625 9.34375V9.35938C34.5625 12.0234 33.2422 13.4844 30.8516 13.4844H28.7891ZM38.7344 5.51562C39.2891 5.51562 39.7188 5.07812 39.7188 4.54688C39.7188 4.00781 39.2891 3.57031 38.7344 3.57031C38.1875 3.57031 37.75 4.00781 37.75 4.54688C37.75 5.07812 38.1875 5.51562 38.7344 5.51562ZM37.8906 15H39.5781V6.78125H37.8906V15ZM44.3984 15.1641C46.3359 15.1641 47.7422 14.1328 47.7422 12.6328V12.625C47.7422 11.4453 47.1016 10.7812 45.4219 10.3906L44.0859 10.0859C43.2031 9.875 42.8672 9.53125 42.8672 9.02344V9.01562C42.8672 8.35938 43.4375 7.92969 44.3438 7.92969C45.2969 7.92969 45.8594 8.42969 45.9609 9.14844L45.9688 9.20312H47.5547L47.5469 9.10938C47.4609 7.71094 46.2891 6.625 44.3438 6.625C42.4531 6.625 41.1719 7.63281 41.1719 9.10156V9.10938C41.1719 10.3047 41.9453 11.0547 43.5078 11.4141L44.8516 11.7188C45.7344 11.9297 46.0312 12.2344 46.0312 12.7656V12.7734C46.0312 13.4375 45.4219 13.8594 44.4062 13.8594C43.3672 13.8594 42.8047 13.4141 42.6484 12.6562L42.6328 12.5781H40.9609L40.9688 12.6484C41.1406 14.1484 42.3438 15.1641 44.3984 15.1641ZM52.5859 15.1641C54.5625 15.1641 55.9375 13.8984 56.1172 12.25L56.125 12.1953H54.5L54.4922 12.2578C54.2891 13.1484 53.625 13.75 52.5859 13.75C51.2812 13.75 50.4141 12.6953 50.4141 10.8984V10.8906C50.4141 9.13281 51.2656 8.03906 52.5781 8.03906C53.6797 8.03906 54.3047 8.71875 54.4844 9.52344L54.5 9.58594H56.1094L56.1016 9.53125C55.9609 7.98438 54.6797 6.625 52.5625 6.625C50.2188 6.625 48.6875 8.27344 48.6875 10.875V10.8828C48.6875 13.5156 50.1875 15.1641 52.5859 15.1641ZM60.1172 15.1641C61.3672 15.1641 62.2031 14.5938 62.6328 13.7656H62.6719V15H64.3672V6.78125H62.6719V11.5781C62.6719 12.8594 61.9062 13.7109 60.7188 13.7109C59.5469 13.7109 58.9688 13.0234 58.9688 11.7812V6.78125H57.2812V12.1094C57.2812 14 58.3125 15.1641 60.1172 15.1641ZM69.1172 15.1641C71.0547 15.1641 72.4609 14.1328 72.4609 12.6328V12.625C72.4609 11.4453 71.8203 10.7812 70.1406 10.3906L68.8047 10.0859C67.9219 9.875 67.5859 9.53125 67.5859 9.02344V9.01562C67.5859 8.35938 68.1562 7.92969 69.0625 7.92969C70.0156 7.92969 70.5781 8.42969 70.6797 9.14844L70.6875 9.20312H72.2734L72.2656 9.10938C72.1797 7.71094 71.0078 6.625 69.0625 6.625C67.1719 6.625 65.8906 7.63281 65.8906 9.10156V9.10938C65.8906 10.3047 66.6641 11.0547 68.2266 11.4141L69.5703 11.7188C70.4531 11.9297 70.75 12.2344 70.75 12.7656V12.7734C70.75 13.4375 70.1406 13.8594 69.125 13.8594C68.0859 13.8594 67.5234 13.4141 67.3672 12.6562L67.3516 12.5781H65.6797L65.6875 12.6484C65.8594 14.1484 67.0625 15.1641 69.1172 15.1641ZM76.8516 15.1641C78.7891 15.1641 80.1953 14.1328 80.1953 12.6328V12.625C80.1953 11.4453 79.5547 10.7812 77.875 10.3906L76.5391 10.0859C75.6562 9.875 75.3203 9.53125 75.3203 9.02344V9.01562C75.3203 8.35938 75.8906 7.92969 76.7969 7.92969C77.75 7.92969 78.3125 8.42969 78.4141 9.14844L78.4219 9.20312H80.0078L80 9.10938C79.9141 7.71094 78.7422 6.625 76.7969 6.625C74.9062 6.625 73.625 7.63281 73.625 9.10156V9.10938C73.625 10.3047 74.3984 11.0547 75.9609 11.4141L77.3047 11.7188C78.1875 11.9297 78.4844 12.2344 78.4844 12.7656V12.7734C78.4844 13.4375 77.875 13.8594 76.8594 13.8594C75.8203 13.8594 75.2578 13.4141 75.1016 12.6562L75.0859 12.5781H73.4141L73.4219 12.6484C73.5938 14.1484 74.7969 15.1641 76.8516 15.1641Z" fill="white"/>
<path d="M8 2C6.41775 2 4.87103 2.46919 3.55544 3.34824C2.23985 4.22729 1.21447 5.47672 0.608967 6.93853C0.00346628 8.40034 -0.15496 10.0089 0.153721 11.5607C0.462403 13.1126 1.22433 14.538 2.34315 15.6569C3.46197 16.7757 4.88743 17.5376 6.43928 17.8463C7.99113 18.155 9.59966 17.9965 11.0615 17.391C12.5233 16.7855 13.7727 15.7602 14.6518 14.4446C15.5308 13.129 16 11.5822 16 10C15.9959 7.87952 15.1518 5.84705 13.6524 4.34764C12.153 2.84823 10.1205 2.00407 8 2ZM8 14.9231C7.81743 14.9231 7.63897 14.8689 7.48717 14.7675C7.33537 14.6661 7.21706 14.5219 7.14719 14.3532C7.07732 14.1846 7.05904 13.999 7.09466 13.8199C7.13028 13.6409 7.21819 13.4764 7.34729 13.3473C7.47638 13.2182 7.64086 13.1303 7.81992 13.0947C7.99898 13.059 8.18458 13.0773 8.35325 13.1472C8.52192 13.2171 8.66608 13.3354 8.76751 13.4872C8.86894 13.639 8.92308 13.8174 8.92308 14C8.92308 14.2448 8.82583 14.4796 8.65271 14.6527C8.4796 14.8258 8.24482 14.9231 8 14.9231ZM8.61539 11.1615V11.2308C8.61539 11.394 8.55055 11.5505 8.43514 11.6659C8.31974 11.7813 8.16321 11.8462 8 11.8462C7.83679 11.8462 7.68027 11.7813 7.56486 11.6659C7.44945 11.5505 7.38462 11.394 7.38462 11.2308V10.6154C7.38462 10.4522 7.44945 10.2956 7.56486 10.1802C7.68027 10.0648 7.83679 10 8 10C8.30428 10 8.60173 9.90977 8.85472 9.74072C9.10772 9.57167 9.30491 9.3314 9.42135 9.05028C9.5378 8.76916 9.56826 8.45983 9.5089 8.1614C9.44954 7.86297 9.30302 7.58884 9.08786 7.37368C8.8727 7.15852 8.59857 7.012 8.30014 6.95264C8.00171 6.89327 7.69237 6.92374 7.41126 7.04018C7.13014 7.15663 6.88987 7.35382 6.72082 7.60681C6.55177 7.85981 6.46154 8.15726 6.46154 8.46154C6.46154 8.62475 6.39671 8.78127 6.2813 8.89668C6.16589 9.01209 6.00937 9.07692 5.84616 9.07692C5.68295 9.07692 5.52642 9.01209 5.41101 8.89668C5.29561 8.78127 5.23077 8.62475 5.23077 8.46154C5.23077 7.94023 5.37792 7.42952 5.65529 6.98813C5.93266 6.54674 6.32898 6.19261 6.79868 5.96646C7.26837 5.74031 7.79236 5.65134 8.31038 5.70977C8.8284 5.76819 9.3194 5.97165 9.72692 6.29674C10.1344 6.62183 10.4419 7.05535 10.614 7.54743C10.7861 8.03952 10.8158 8.57018 10.6997 9.07838C10.5835 9.58659 10.3263 10.0517 9.95762 10.4202C9.5889 10.7887 9.12365 11.0457 8.61539 11.1615Z" fill="#767B7F"/>
</svg>
