<svg width="20" height="20" viewBox="0 0 20 20" fill="none" xmlns="http://www.w3.org/2000/svg">
<path d="M15.3182 1H18.1818C18.3988 1 18.6069 1.0862 18.7604 1.23964C18.9138 1.39308 19 1.60119 19 1.81818V4.68182M15.3182 19H18.1818C18.3988 19 18.6069 18.9138 18.7604 18.7604C18.9138 18.6069 19 18.3988 19 18.1818V15.3182M4.68182 19H1.81818C1.60119 19 1.39308 18.9138 1.23964 18.7604C1.0862 18.6069 1 18.3988 1 18.1818V15.3182M4.68182 1H1.81818C1.60119 1 1.39308 1.0862 1.23964 1.23964C1.0862 1.39308 1 1.60119 1 1.81818V4.68182M10 11.6364C11.8075 11.6364 13.2727 10.1711 13.2727 8.36364C13.2727 6.55616 11.8075 5.09091 10 5.09091C8.19252 5.09091 6.72727 6.55616 6.72727 8.36364C6.72727 10.1711 8.19252 11.6364 10 11.6364ZM10 11.6364C9.04736 11.6364 8.1078 11.8582 7.25573 12.2842C6.40367 12.7102 5.66249 13.3288 5.09091 14.0909M10 11.6364C10.9526 11.6364 11.8922 11.8582 12.7443 12.2842C13.5963 12.7102 14.3375 13.3288 14.9091 14.0909" stroke="white" stroke-opacity="0.8" stroke-width="2" stroke-linecap="round" stroke-linejoin="round"/>
</svg>
