<svg width="20" height="18" viewBox="0 0 20 18" fill="none" xmlns="http://www.w3.org/2000/svg">
<path d="M18.3344 17H1.69375C1.60265 17 1.51243 16.9813 1.42826 16.9451C1.34409 16.9088 1.26762 16.8556 1.20319 16.7886C1.13877 16.7215 1.08767 16.6419 1.05281 16.5543C1.01794 16.4667 1 16.3729 1 16.2781V4.51221H18.25C18.4489 4.51221 18.6397 4.59444 18.7803 4.74081C18.921 4.88718 19 5.0857 19 5.29269V16.3073C19 16.491 18.9299 16.6672 18.805 16.7971C18.6802 16.927 18.5109 17 18.3344 17Z" stroke="#D5D6D7" stroke-width="2" stroke-linecap="round" stroke-linejoin="round"/>
<path d="M7.225 1.26342L10 4.5122H1V1.78049C1 1.57349 1.07902 1.37497 1.21967 1.2286C1.36032 1.08223 1.55109 1 1.75 1H6.6625C6.76885 0.999897 6.874 1.02333 6.97098 1.06874C7.06796 1.11416 7.15455 1.18052 7.225 1.26342Z" stroke="#D5D6D7" stroke-width="2" stroke-linecap="round" stroke-linejoin="round"/>
</svg>
