<svg width="22" height="20" viewBox="0 0 22 20" fill="none" xmlns="http://www.w3.org/2000/svg">
<path d="M20.2604 19.0001H1.77083C1.66961 19.0001 1.56937 18.9791 1.47585 18.9382C1.38233 18.8974 1.29735 18.8376 1.22577 18.7622C1.15419 18.6868 1.09741 18.5972 1.05868 18.4987C1.01994 18.4002 1 18.2945 1 18.1879V4.95129H20.1667C20.3877 4.95129 20.5996 5.0438 20.7559 5.20847C20.9122 5.37313 21 5.59647 21 5.82934V18.2208C21 18.4275 20.9221 18.6257 20.7834 18.7718C20.6447 18.918 20.4566 19.0001 20.2604 19.0001Z" stroke="white" stroke-width="2" stroke-linecap="round" stroke-linejoin="round"/>
<path d="M7.91667 1.29634L11 4.95122H1V1.87805C1 1.64518 1.0878 1.42184 1.24408 1.25718C1.40036 1.09251 1.61232 1 1.83333 1H7.29167C7.40983 0.999884 7.52666 1.02625 7.63442 1.07734C7.74217 1.12843 7.83838 1.20308 7.91667 1.29634Z" stroke="white" stroke-width="2" stroke-linecap="round" stroke-linejoin="round"/>
</svg>
