<svg width="19" height="16" viewBox="0 0 19 16" fill="none" xmlns="http://www.w3.org/2000/svg">
<path d="M5.47852 1.26343H18.0003" stroke="white" stroke-opacity="0.5" stroke-width="1.5" stroke-linecap="round" stroke-linejoin="round"/>
<path d="M5.47852 8H18.0003" stroke="white" stroke-opacity="0.5" stroke-width="1.5" stroke-linecap="round" stroke-linejoin="round"/>
<path d="M5.47852 14.7366H18.0003" stroke="white" stroke-opacity="0.5" stroke-width="1.5" stroke-linecap="round" stroke-linejoin="round"/>
<path d="M1.17391 2.52629C1.82225 2.52629 2.34783 1.96076 2.34783 1.26315C2.34783 0.56553 1.82225 0 1.17391 0C0.525579 0 0 0.56553 0 1.26315C0 1.96076 0.525579 2.52629 1.17391 2.52629Z" fill="white" fill-opacity="0.5"/>
<path d="M1.17391 9.26287C1.82225 9.26287 2.34783 8.69734 2.34783 7.99972C2.34783 7.3021 1.82225 6.73657 1.17391 6.73657C0.525579 6.73657 0 7.3021 0 7.99972C0 8.69734 0.525579 9.26287 1.17391 9.26287Z" fill="white" fill-opacity="0.5"/>
<path d="M1.17391 16.0002C1.82225 16.0002 2.34783 15.4346 2.34783 14.737C2.34783 14.0394 1.82225 13.4739 1.17391 13.4739C0.525579 13.4739 0 14.0394 0 14.737C0 15.4346 0.525579 16.0002 1.17391 16.0002Z" fill="white" fill-opacity="0.5"/>
</svg>
