<svg width="18" height="18" viewBox="0 0 18 18" fill="none" xmlns="http://www.w3.org/2000/svg">
<path opacity="0.8" d="M1.8 10.4201L9.9 10.4211C10.3541 10.4209 10.7915 10.6014 11.1245 10.9265C11.4575 11.2515 11.6614 11.697 11.6955 12.1737L11.7 12.3158V13.7368C11.6991 17.0526 8.3556 18 5.85 18C3.4002 18 0.1485 17.0943 0.0045001 13.9547L0 13.7368V12.3148C0 11.3163 0.7344 10.4978 1.665 10.4248L1.8 10.4211V10.4201ZM11.898 10.4211H16.2C17.1486 10.4211 17.9262 11.1941 17.9946 12.1737L18 12.3158V13.2632C17.9991 16.164 15.4278 17.0526 13.5 17.0526C12.847 17.0543 12.1976 16.9514 11.574 16.7476C11.8764 16.3819 12.1203 15.9641 12.2958 15.4904C12.6911 15.5834 13.0949 15.6308 13.5 15.6316L13.7403 15.6259C14.6268 15.5852 16.5177 15.282 16.6437 13.4574L16.65 13.2632V12.3158C16.6499 12.205 16.6129 12.0977 16.5455 12.0126C16.4781 11.9274 16.3845 11.8698 16.281 11.8497L16.2 11.8421H12.5541C12.4797 11.3783 12.2955 10.9418 12.0186 10.5726L11.898 10.4211H16.2H11.898ZM1.8 11.8412L1.71 11.8506C1.62362 11.8696 1.54425 11.9143 1.4814 11.9795C1.41946 12.0452 1.37695 12.1285 1.359 12.2192L1.35 12.3148V13.7368C1.35 14.6927 1.755 15.3682 2.6253 15.8608C3.3687 16.2824 4.428 16.5373 5.5647 16.5742L5.85 16.5789L6.1353 16.5742C7.272 16.5373 8.3304 16.2824 9.0747 15.8608C9.8901 15.3985 10.2978 14.7761 10.3455 13.9121L10.35 13.7359V12.3158C10.3499 12.205 10.3129 12.0977 10.2455 12.0126C10.1781 11.9274 10.0845 11.8698 9.981 11.8497L9.9 11.8421L1.8 11.8412ZM5.85 0C6.92413 0 7.95426 0.449153 8.71378 1.24865C9.4733 2.04815 9.9 3.1325 9.9 4.26316C9.9 5.39382 9.4733 6.47817 8.71378 7.27767C7.95426 8.07716 6.92413 8.52632 5.85 8.52632C4.77587 8.52632 3.74574 8.07716 2.98622 7.27767C2.2267 6.47817 1.8 5.39382 1.8 4.26316C1.8 3.1325 2.2267 2.04815 2.98622 1.24865C3.74574 0.449153 4.77587 0 5.85 0ZM13.95 1.89474C14.7854 1.89474 15.5866 2.24408 16.1774 2.86591C16.7681 3.48774 17.1 4.33112 17.1 5.21053C17.1 6.08993 16.7681 6.93331 16.1774 7.55514C15.5866 8.17697 14.7854 8.52632 13.95 8.52632C13.1146 8.52632 12.3134 8.17697 11.7226 7.55514C11.1319 6.93331 10.8 6.08993 10.8 5.21053C10.8 4.33112 11.1319 3.48774 11.7226 2.86591C12.3134 2.24408 13.1146 1.89474 13.95 1.89474ZM5.85 1.42105C4.3614 1.42105 3.15 2.69621 3.15 4.26316C3.15 5.83011 4.3614 7.10526 5.85 7.10526C7.3386 7.10526 8.55 5.83011 8.55 4.26316C8.55 2.69621 7.3386 1.42105 5.85 1.42105ZM13.95 3.31579C12.9573 3.31579 12.15 4.16558 12.15 5.21053C12.15 6.25547 12.9573 7.10526 13.95 7.10526C14.9427 7.10526 15.75 6.25547 15.75 5.21053C15.75 4.16558 14.9427 3.31579 13.95 3.31579Z" fill="white"/>
</svg>
