<svg width="32" height="32" viewBox="0 0 32 32" fill="none" xmlns="http://www.w3.org/2000/svg">
<path d="M16 22C19.3137 22 22 19.3137 22 16C22 12.6863 19.3137 10 16 10C12.6863 10 10 12.6863 10 16C10 19.3137 12.6863 22 16 22Z" stroke="white" stroke-width="1.5" stroke-linecap="round" stroke-linejoin="round"/>
<path d="M15.5 15.5H16V19H16.5" stroke="white" stroke-width="1.5" stroke-linecap="round" stroke-linejoin="round"/>
<path d="M15.875 14C16.2892 14 16.625 13.6642 16.625 13.25C16.625 12.8358 16.2892 12.5 15.875 12.5C15.4608 12.5 15.125 12.8358 15.125 13.25C15.125 13.6642 15.4608 14 15.875 14Z" fill="white"/>
<rect x="1" y="1" width="30" height="30" rx="5" stroke="white" stroke-opacity="0.1" stroke-width="2"/>
</svg>
