<svg width="14" height="14" viewBox="0 0 14 14" fill="none" xmlns="http://www.w3.org/2000/svg">
<path d="M4.71915 13H1.53131C1.3904 13 1.25526 12.944 1.15562 12.8444C1.05598 12.7447 1 12.6096 1 12.4687V9.50002C0.999761 9.43103 1.01313 9.36267 1.03934 9.29885C1.06555 9.23503 1.10409 9.17701 1.15275 9.1281L9.12236 1.1585C9.17179 1.1083 9.23072 1.06844 9.29571 1.04123C9.3607 1.01401 9.43045 1 9.50091 1C9.57137 1 9.64112 1.01401 9.70611 1.04123C9.7711 1.06844 9.83003 1.1083 9.87947 1.1585L12.8415 4.12054C12.8917 4.16998 12.9316 4.2289 12.9588 4.29389C12.986 4.35888 13 4.42864 13 4.49909C13 4.56955 12.986 4.6393 12.9588 4.70429C12.9316 4.76928 12.8917 4.82821 12.8415 4.87765L4.71915 13Z" stroke="#B8BBBB" stroke-width="1.5" stroke-linecap="round" stroke-linejoin="round"/>
<path d="M12.6888 13H4.71924" stroke="#B8BBBB" stroke-width="1.5" stroke-linecap="round" stroke-linejoin="round"/>
<path d="M7.37549 2.90527L11.0946 6.62442" stroke="#B8BBBB" stroke-width="1.5" stroke-linecap="round" stroke-linejoin="round"/>
</svg>
