<svg width="37" height="31" viewBox="0 0 37 31" fill="none" xmlns="http://www.w3.org/2000/svg">
<path d="M0.150391 29H1.07324L1.78613 26.9834H4.62305L5.33594 29H6.25879L3.6416 21.9541H2.77246L0.150391 29ZM3.19727 23.0088H3.2168L4.35938 26.2363H2.05469L3.19727 23.0088ZM8.74902 29.0977C9.47656 29.0977 10.043 28.7314 10.3604 28.1406H10.3799V29H11.2295V21.9541H10.3799V24.7715H10.3604C10.043 24.1855 9.45215 23.8242 8.73438 23.8242C7.45996 23.8242 6.59082 24.8545 6.59082 26.4561V26.4609C6.59082 28.0625 7.4502 29.0977 8.74902 29.0977ZM8.91504 28.3457C8.0166 28.3457 7.45996 27.6279 7.45996 26.4609V26.4561C7.45996 25.2988 8.0166 24.5762 8.91504 24.5762C9.76953 24.5762 10.3848 25.3232 10.3848 26.4561V26.4609C10.3848 27.5986 9.77441 28.3457 8.91504 28.3457ZM14.2861 29.0977C15.0137 29.0977 15.5801 28.7314 15.8975 28.1406H15.917V29H16.7666V21.9541H15.917V24.7715H15.8975C15.5801 24.1855 14.9893 23.8242 14.2715 23.8242C12.9971 23.8242 12.1279 24.8545 12.1279 26.4561V26.4609C12.1279 28.0625 12.9873 29.0977 14.2861 29.0977ZM14.4521 28.3457C13.5537 28.3457 12.9971 27.6279 12.9971 26.4609V26.4561C12.9971 25.2988 13.5537 24.5762 14.4521 24.5762C15.3066 24.5762 15.9219 25.3232 15.9219 26.4561V26.4609C15.9219 27.5986 15.3115 28.3457 14.4521 28.3457ZM19.9648 29H20.8145V26.0117C20.8145 25.1475 21.3369 24.5762 22.1377 24.5762C22.9189 24.5762 23.3047 25.0303 23.3047 25.8555V29H24.1543V25.7041C24.1543 24.5469 23.5098 23.8242 22.3965 23.8242C21.625 23.8242 21.1074 24.1709 20.834 24.6445H20.8145V23.9219H19.9648V29ZM27.3281 29.0977C28.4365 29.0977 29.2666 28.4336 29.4326 27.5938L29.4424 27.5449H28.6074L28.5928 27.5889C28.4463 28.0234 27.9922 28.3457 27.3477 28.3457C26.4443 28.3457 25.8682 27.7354 25.8486 26.6904H29.5059V26.3779C29.5059 24.8545 28.6611 23.8242 27.2744 23.8242C25.8877 23.8242 24.9893 24.9033 24.9893 26.4756V26.4805C24.9893 28.0771 25.8682 29.0977 27.3281 29.0977ZM27.2695 24.5762C28.0117 24.5762 28.5586 25.04 28.6416 26.0264H25.8633C25.9561 25.0791 26.5322 24.5762 27.2695 24.5762ZM31.3711 29H32.2354L33.3779 25.0693H33.3975L34.5449 29H35.4092L36.8252 23.9219H35.9854L34.9697 28.0527H34.9502L33.7979 23.9219H32.9775L31.8301 28.0527H31.8105L30.7949 23.9219H29.9502L31.3711 29Z" fill="white"/>
<path d="M12 7H24" stroke="white" stroke-width="2" stroke-linecap="round" stroke-linejoin="round"/>
<path d="M18 1V13" stroke="white" stroke-width="2" stroke-linecap="round" stroke-linejoin="round"/>
</svg>
