<svg width="124" height="19" viewBox="0 0 124 19" fill="none" xmlns="http://www.w3.org/2000/svg">
<path d="M30.8828 15.1875C33.5547 15.1875 35.1797 13.8828 35.1797 11.8281V11.8203C35.1797 10.0781 34.1797 9.13281 31.8516 8.64062L30.6172 8.38281C29.2109 8.07812 28.5703 7.5625 28.5703 6.71875V6.71094C28.5703 5.72656 29.4609 5.0625 30.8594 5.05469C32.1953 5.05469 33.1016 5.6875 33.2578 6.73438L33.2656 6.84375H34.9688L34.9609 6.71094C34.8438 4.82031 33.2344 3.53906 30.8828 3.53906C28.5 3.53906 26.8047 4.85938 26.7969 6.78125V6.78906C26.7969 8.46094 27.8672 9.47656 30.0781 9.94531L31.3047 10.2031C32.7969 10.5312 33.4141 11.0234 33.4141 11.9297V11.9375C33.4141 12.9922 32.4609 13.6719 30.9531 13.6719C29.4453 13.6719 28.4062 13.0234 28.25 11.9844L28.2344 11.8828H26.5312L26.5391 12C26.6797 13.9844 28.3516 15.1875 30.8828 15.1875ZM38.9688 15.1484C40.0547 15.1484 41.0078 14.5859 41.4844 13.7031H41.5156V15H43.2109V9.33594C43.2109 7.6875 41.9375 6.625 39.9297 6.625C37.9062 6.625 36.6797 7.71094 36.5625 9.125L36.5547 9.21094H38.1484L38.1641 9.14062C38.3047 8.48438 38.9062 8.02344 39.8828 8.02344C40.9297 8.02344 41.5156 8.57031 41.5156 9.47656V10.0938L39.2812 10.2266C37.3359 10.3438 36.2266 11.2188 36.2266 12.6484V12.6641C36.2266 14.1406 37.3281 15.1484 38.9688 15.1484ZM37.9297 12.625V12.6094C37.9297 11.9141 38.4922 11.4688 39.5078 11.4062L41.5156 11.2812V11.9219C41.5156 12.9922 40.6172 13.7969 39.4297 13.7969C38.5234 13.7969 37.9297 13.3438 37.9297 12.625ZM47.0938 15H48.9062L51.8516 6.78125H50.0938L48.0312 13.3516H47.9922L45.9297 6.78125H44.1328L47.0938 15ZM56.0156 15.1641C58.0078 15.1641 59.2734 13.9766 59.5391 12.6719L59.5547 12.5859H57.9531L57.9297 12.6484C57.7188 13.2656 57.0547 13.7812 56.0547 13.7812C54.7109 13.7812 53.8594 12.875 53.8281 11.3203H59.6484V10.75C59.6484 8.28125 58.2344 6.625 55.9297 6.625C53.625 6.625 52.1406 8.34375 52.1406 10.9141V10.9219C52.1406 13.5156 53.6016 15.1641 56.0156 15.1641ZM55.9375 8.00781C57.0391 8.00781 57.8359 8.70312 57.9766 10.125H53.8516C54 8.75 54.8438 8.00781 55.9375 8.00781ZM69.8906 17.7344H71.5859V6.78125H69.8906V8.19531H69.8516C69.3672 7.25781 68.4609 6.63281 67.3047 6.63281C65.2188 6.63281 63.8438 8.27344 63.8438 10.875V10.8828C63.8438 13.5 65.2031 15.1484 67.2656 15.1484C68.4453 15.1484 69.3828 14.5703 69.8516 13.6484H69.8906V17.7344ZM67.7422 13.6953C66.4062 13.6953 65.5703 12.625 65.5703 10.8828V10.875C65.5703 9.17188 66.4062 8.08594 67.7422 8.08594C69.0234 8.08594 69.8906 9.17969 69.8906 10.8828V10.8906C69.8906 12.5938 69.0312 13.6953 67.7422 13.6953ZM76.0391 15.1641C77.2891 15.1641 78.125 14.5938 78.5547 13.7656H78.5938V15H80.2891V6.78125H78.5938V11.5781C78.5938 12.8594 77.8281 13.7109 76.6406 13.7109C75.4688 13.7109 74.8906 13.0234 74.8906 11.7812V6.78125H73.2031V12.1094C73.2031 14 74.2344 15.1641 76.0391 15.1641ZM85.4688 15.1641C87.4609 15.1641 88.7266 13.9766 88.9922 12.6719L89.0078 12.5859H87.4062L87.3828 12.6484C87.1719 13.2656 86.5078 13.7812 85.5078 13.7812C84.1641 13.7812 83.3125 12.875 83.2812 11.3203H89.1016V10.75C89.1016 8.28125 87.6875 6.625 85.3828 6.625C83.0781 6.625 81.5938 8.34375 81.5938 10.9141V10.9219C81.5938 13.5156 83.0547 15.1641 85.4688 15.1641ZM85.3906 8.00781C86.4922 8.00781 87.2891 8.70312 87.4297 10.125H83.3047C83.4531 8.75 84.2969 8.00781 85.3906 8.00781ZM93.4922 15.1641C95.4297 15.1641 96.8359 14.1328 96.8359 12.6328V12.625C96.8359 11.4453 96.1953 10.7812 94.5156 10.3906L93.1797 10.0859C92.2969 9.875 91.9609 9.53125 91.9609 9.02344V9.01562C91.9609 8.35938 92.5312 7.92969 93.4375 7.92969C94.3906 7.92969 94.9531 8.42969 95.0547 9.14844L95.0625 9.20312H96.6484L96.6406 9.10938C96.5547 7.71094 95.3828 6.625 93.4375 6.625C91.5469 6.625 90.2656 7.63281 90.2656 9.10156V9.10938C90.2656 10.3047 91.0391 11.0547 92.6016 11.4141L93.9453 11.7188C94.8281 11.9297 95.125 12.2344 95.125 12.7656V12.7734C95.125 13.4375 94.5156 13.8594 93.5 13.8594C92.4609 13.8594 91.8984 13.4141 91.7422 12.6562L91.7266 12.5781H90.0547L90.0625 12.6484C90.2344 14.1484 91.4375 15.1641 93.4922 15.1641ZM101.031 15.1641C101.375 15.1641 101.695 15.125 101.891 15.0938V13.7891C101.766 13.8047 101.617 13.8203 101.438 13.8203C100.727 13.8203 100.352 13.5703 100.352 12.7344V8.125H101.891V6.78125H100.352V4.64062H98.625V6.78125H97.4453V8.125H98.625V12.8359C98.625 14.4766 99.4062 15.1641 101.031 15.1641ZM104.203 5.51562C104.758 5.51562 105.188 5.07812 105.188 4.54688C105.188 4.00781 104.758 3.57031 104.203 3.57031C103.656 3.57031 103.219 4.00781 103.219 4.54688C103.219 5.07812 103.656 5.51562 104.203 5.51562ZM103.359 15H105.047V6.78125H103.359V15ZM110.32 15.1641C112.672 15.1641 114.219 13.5391 114.219 10.8906V10.875C114.219 8.24219 112.656 6.625 110.312 6.625C107.977 6.625 106.422 8.25 106.422 10.875V10.8906C106.422 13.5312 107.961 15.1641 110.32 15.1641ZM110.328 13.75C109.008 13.75 108.148 12.7109 108.148 10.8906V10.875C108.148 9.07812 109.016 8.03906 110.312 8.03906C111.633 8.03906 112.492 9.07812 112.492 10.875V10.8906C112.492 12.7031 111.648 13.75 110.328 13.75ZM115.523 15H117.211V10.2109C117.211 8.92969 117.977 8.07031 119.164 8.07031C120.336 8.07031 120.914 8.76562 120.914 10V15H122.609V9.67969C122.609 7.78906 121.57 6.625 119.766 6.625C118.523 6.625 117.68 7.1875 117.25 8.02344H117.211V6.78125H115.523V15Z" fill="white"/>
<path d="M8 2C6.41775 2 4.87103 2.46919 3.55544 3.34824C2.23985 4.22729 1.21447 5.47672 0.608967 6.93853C0.00346628 8.40034 -0.15496 10.0089 0.153721 11.5607C0.462403 13.1126 1.22433 14.538 2.34315 15.6569C3.46197 16.7757 4.88743 17.5376 6.43928 17.8463C7.99113 18.155 9.59966 17.9965 11.0615 17.391C12.5233 16.7855 13.7727 15.7602 14.6518 14.4446C15.5308 13.129 16 11.5822 16 10C15.9959 7.87952 15.1518 5.84705 13.6524 4.34764C12.153 2.84823 10.1205 2.00407 8 2ZM8 14.9231C7.81743 14.9231 7.63897 14.8689 7.48717 14.7675C7.33537 14.6661 7.21706 14.5219 7.14719 14.3532C7.07732 14.1846 7.05904 13.999 7.09466 13.8199C7.13028 13.6409 7.21819 13.4764 7.34729 13.3473C7.47638 13.2182 7.64086 13.1303 7.81992 13.0947C7.99898 13.059 8.18458 13.0773 8.35325 13.1472C8.52192 13.2171 8.66608 13.3354 8.76751 13.4872C8.86894 13.639 8.92308 13.8174 8.92308 14C8.92308 14.2448 8.82583 14.4796 8.65271 14.6527C8.4796 14.8258 8.24482 14.9231 8 14.9231ZM8.61539 11.1615V11.2308C8.61539 11.394 8.55055 11.5505 8.43514 11.6659C8.31974 11.7813 8.16321 11.8462 8 11.8462C7.83679 11.8462 7.68027 11.7813 7.56486 11.6659C7.44945 11.5505 7.38462 11.394 7.38462 11.2308V10.6154C7.38462 10.4522 7.44945 10.2956 7.56486 10.1802C7.68027 10.0648 7.83679 10 8 10C8.30428 10 8.60173 9.90977 8.85472 9.74072C9.10772 9.57167 9.30491 9.3314 9.42135 9.05028C9.5378 8.76916 9.56826 8.45983 9.5089 8.1614C9.44954 7.86297 9.30302 7.58884 9.08786 7.37368C8.8727 7.15852 8.59857 7.012 8.30014 6.95264C8.00171 6.89327 7.69237 6.92374 7.41126 7.04018C7.13014 7.15663 6.88987 7.35382 6.72082 7.60681C6.55177 7.85981 6.46154 8.15726 6.46154 8.46154C6.46154 8.62475 6.39671 8.78127 6.2813 8.89668C6.16589 9.01209 6.00937 9.07692 5.84616 9.07692C5.68295 9.07692 5.52642 9.01209 5.41101 8.89668C5.29561 8.78127 5.23077 8.62475 5.23077 8.46154C5.23077 7.94023 5.37792 7.42952 5.65529 6.98813C5.93266 6.54674 6.32898 6.19261 6.79868 5.96646C7.26837 5.74031 7.79236 5.65134 8.31038 5.70977C8.8284 5.76819 9.3194 5.97165 9.72692 6.29674C10.1344 6.62183 10.4419 7.05535 10.614 7.54743C10.7861 8.03952 10.8158 8.57018 10.6997 9.07838C10.5835 9.58659 10.3263 10.0517 9.95762 10.4202C9.5889 10.7887 9.12365 11.0457 8.61539 11.1615Z" fill="#767B7F"/>
</svg>
