<svg width="70" height="19" viewBox="0 0 70 19" fill="none" xmlns="http://www.w3.org/2000/svg">
<path d="M30.8828 15.1875C33.5547 15.1875 35.1797 13.8828 35.1797 11.8281V11.8203C35.1797 10.0781 34.1797 9.13281 31.8516 8.64062L30.6172 8.38281C29.2109 8.07812 28.5703 7.5625 28.5703 6.71875V6.71094C28.5703 5.72656 29.4609 5.0625 30.8594 5.05469C32.1953 5.05469 33.1016 5.6875 33.2578 6.73438L33.2656 6.84375H34.9688L34.9609 6.71094C34.8438 4.82031 33.2344 3.53906 30.8828 3.53906C28.5 3.53906 26.8047 4.85938 26.7969 6.78125V6.78906C26.7969 8.46094 27.8672 9.47656 30.0781 9.94531L31.3047 10.2031C32.7969 10.5312 33.4141 11.0234 33.4141 11.9297V11.9375C33.4141 12.9922 32.4609 13.6719 30.9531 13.6719C29.4453 13.6719 28.4062 13.0234 28.25 11.9844L28.2344 11.8828H26.5312L26.5391 12C26.6797 13.9844 28.3516 15.1875 30.8828 15.1875ZM40.0625 15.1641C42.0547 15.1641 43.3203 13.9766 43.5859 12.6719L43.6016 12.5859H42L41.9766 12.6484C41.7656 13.2656 41.1016 13.7812 40.1016 13.7812C38.7578 13.7812 37.9062 12.875 37.875 11.3203H43.6953V10.75C43.6953 8.28125 42.2812 6.625 39.9766 6.625C37.6719 6.625 36.1875 8.34375 36.1875 10.9141V10.9219C36.1875 13.5156 37.6484 15.1641 40.0625 15.1641ZM39.9844 8.00781C41.0859 8.00781 41.8828 8.70312 42.0234 10.125H37.8984C38.0469 8.75 38.8906 8.00781 39.9844 8.00781ZM45.0703 15H46.7578V3.72656H45.0703V15ZM52 15.1641C53.9922 15.1641 55.2578 13.9766 55.5234 12.6719L55.5391 12.5859H53.9375L53.9141 12.6484C53.7031 13.2656 53.0391 13.7812 52.0391 13.7812C50.6953 13.7812 49.8438 12.875 49.8125 11.3203H55.6328V10.75C55.6328 8.28125 54.2188 6.625 51.9141 6.625C49.6094 6.625 48.125 8.34375 48.125 10.9141V10.9219C48.125 13.5156 49.5859 15.1641 52 15.1641ZM51.9219 8.00781C53.0234 8.00781 53.8203 8.70312 53.9609 10.125H49.8359C49.9844 8.75 50.8281 8.00781 51.9219 8.00781ZM60.4766 15.1641C62.4531 15.1641 63.8281 13.8984 64.0078 12.25L64.0156 12.1953H62.3906L62.3828 12.2578C62.1797 13.1484 61.5156 13.75 60.4766 13.75C59.1719 13.75 58.3047 12.6953 58.3047 10.8984V10.8906C58.3047 9.13281 59.1562 8.03906 60.4688 8.03906C61.5703 8.03906 62.1953 8.71875 62.375 9.52344L62.3906 9.58594H64L63.9922 9.53125C63.8516 7.98438 62.5703 6.625 60.4531 6.625C58.1094 6.625 56.5781 8.27344 56.5781 10.875V10.8828C56.5781 13.5156 58.0781 15.1641 60.4766 15.1641ZM68.0938 15.1641C68.4375 15.1641 68.7578 15.125 68.9531 15.0938V13.7891C68.8281 13.8047 68.6797 13.8203 68.5 13.8203C67.7891 13.8203 67.4141 13.5703 67.4141 12.7344V8.125H68.9531V6.78125H67.4141V4.64062H65.6875V6.78125H64.5078V8.125H65.6875V12.8359C65.6875 14.4766 66.4688 15.1641 68.0938 15.1641Z" fill="white"/>
<path d="M8 2C6.41775 2 4.87103 2.46919 3.55544 3.34824C2.23985 4.22729 1.21447 5.47672 0.608967 6.93853C0.00346628 8.40034 -0.15496 10.0089 0.153721 11.5607C0.462403 13.1126 1.22433 14.538 2.34315 15.6569C3.46197 16.7757 4.88743 17.5376 6.43928 17.8463C7.99113 18.155 9.59966 17.9965 11.0615 17.391C12.5233 16.7855 13.7727 15.7602 14.6518 14.4446C15.5308 13.129 16 11.5822 16 10C15.9959 7.87952 15.1518 5.84705 13.6524 4.34764C12.153 2.84823 10.1205 2.00407 8 2ZM11.8077 8.6L7.3 12.9077C7.18347 13.0173 7.02922 13.0779 6.86923 13.0769C6.79103 13.078 6.71338 13.0637 6.64077 13.0346C6.56815 13.0056 6.50201 12.9624 6.44616 12.9077L4.19231 10.7538C4.1298 10.6993 4.07896 10.6327 4.04285 10.558C4.00673 10.4833 3.9861 10.4021 3.98218 10.3192C3.97826 10.2363 3.99113 10.1535 4.02003 10.0758C4.04893 9.99801 4.09325 9.92689 4.15034 9.86669C4.20742 9.8065 4.27609 9.75846 4.35221 9.72548C4.42833 9.69249 4.51034 9.67524 4.5933 9.67476C4.67626 9.67428 4.75846 9.69058 4.83496 9.72267C4.91146 9.75477 4.98068 9.802 5.03846 9.86154L6.86923 11.6077L10.9615 7.70769C11.0812 7.6033 11.2366 7.5492 11.3952 7.5567C11.5538 7.56421 11.7034 7.63273 11.8126 7.74796C11.9219 7.86318 11.9824 8.01618 11.9815 8.17497C11.9806 8.33376 11.9183 8.48605 11.8077 8.6Z" fill="#767B7F"/>
</svg>
