<svg width="32" height="32" viewBox="0 0 32 32" fill="none" xmlns="http://www.w3.org/2000/svg">
<path d="M16 18C17.1046 18 18 17.1046 18 16C18 14.8954 17.1046 14 16 14C14.8954 14 14 14.8954 14 16C14 17.1046 14.8954 18 16 18Z" stroke="white" stroke-width="1.5" stroke-linecap="round" stroke-linejoin="round"/>
<path d="M19.3287 12.241C19.4801 12.3805 19.6235 12.5239 19.759 12.6713L21.3904 12.9044C21.6563 13.366 21.8612 13.8602 22 14.3745L21.008 15.6952C21.008 15.6952 21.0259 16.1016 21.008 16.3048L22 17.6255C21.8618 18.14 21.6569 18.6343 21.3904 19.0956L19.759 19.3287C19.759 19.3287 19.4781 19.6215 19.3287 19.759L19.0956 21.3904C18.634 21.6563 18.1398 21.8612 17.6255 22L16.3048 21.008C16.102 21.0259 15.898 21.0259 15.6952 21.008L14.3745 22C13.86 21.8618 13.3657 21.6569 12.9044 21.3904L12.6713 19.759C12.5239 19.6195 12.3805 19.4761 12.241 19.3287L10.6096 19.0956C10.3437 18.634 10.1388 18.1398 10 17.6255L10.992 16.3048C10.992 16.3048 10.9741 15.8984 10.992 15.6952L10 14.3745C10.1382 13.86 10.3431 13.3657 10.6096 12.9044L12.241 12.6713C12.3805 12.5239 12.5239 12.3805 12.6713 12.241L12.9044 10.6096C13.366 10.3437 13.8602 10.1388 14.3745 10L15.6952 10.992C15.898 10.9741 16.102 10.9741 16.3048 10.992L17.6255 10C18.14 10.1382 18.6343 10.3431 19.0956 10.6096L19.3287 12.241Z" stroke="white" stroke-width="1.5" stroke-linecap="round" stroke-linejoin="round"/>
<rect x="1" y="1" width="30" height="30" rx="5" stroke="white" stroke-opacity="0.1" stroke-width="2"/>
</svg>
