<svg width="19" height="18" viewBox="0 0 19 18" fill="none" xmlns="http://www.w3.org/2000/svg">
<path d="M9.00139 0C13.9725 0 18.0023 4.0298 18.0023 9.0009C18.0023 13.9711 13.9725 18 9.00139 18C4.03028 18.0009 0.000488281 13.9711 0.000488281 9.0009C0.000488281 4.0298 4.03028 0 9.00139 0ZM9.00139 1.34986C7.98972 1.33889 6.98592 1.52868 6.04808 1.90823C5.11024 2.28779 4.257 2.84958 3.53773 3.56109C2.81846 4.27261 2.24745 5.11971 1.85774 6.05337C1.46804 6.98703 1.26738 7.98872 1.26738 9.00045C1.26738 10.0122 1.46804 11.0139 1.85774 11.9475C2.24745 12.8812 2.81846 13.7283 3.53773 14.4398C4.257 15.1513 5.11024 15.7131 6.04808 16.0927C6.98592 16.4722 7.98972 16.662 9.00139 16.651C11.0161 16.6292 12.9408 15.8135 14.3578 14.3811C15.7747 12.9487 16.5694 11.0153 16.5694 9.00045C16.5694 6.98564 15.7747 5.05216 14.3578 3.61977C12.9408 2.18738 11.0161 1.37172 9.00139 1.34986ZM5.81751 11.5053C6.19628 11.9875 6.67976 12.3772 7.23137 12.6449C7.78298 12.9126 8.38826 13.0513 9.00139 13.0505C9.61385 13.0512 10.2185 12.9128 10.7696 12.6456C11.3207 12.3784 11.8039 11.9894 12.1826 11.508C12.2375 11.4385 12.3056 11.3805 12.383 11.3372C12.4604 11.294 12.5455 11.2665 12.6336 11.2561C12.7216 11.2458 12.8108 11.2529 12.8961 11.2771C12.9814 11.3012 13.0611 11.342 13.1306 11.3969C13.2002 11.4519 13.2582 11.52 13.3014 11.5974C13.3447 11.6747 13.3722 11.7599 13.3825 11.8479C13.3929 11.936 13.3857 12.0252 13.3616 12.1104C13.3374 12.1957 13.2967 12.2754 13.2418 12.345C12.7367 12.9862 12.0926 13.5044 11.358 13.8605C10.6235 14.2165 9.81768 14.4011 9.00139 14.4004C8.18405 14.401 7.37726 14.2158 6.64202 13.8588C5.90677 13.5018 5.26233 12.9823 4.75741 12.3396C4.70021 12.2702 4.65743 12.1901 4.63161 12.104C4.60578 12.0179 4.59742 11.9275 4.60701 11.8381C4.61661 11.7487 4.64397 11.6621 4.68749 11.5834C4.73101 11.5048 4.7898 11.4356 4.86043 11.3799C4.93105 11.3243 5.01208 11.2833 5.09876 11.2594C5.18543 11.2356 5.27601 11.2292 5.36516 11.2408C5.45432 11.2524 5.54026 11.2817 5.61794 11.327C5.69562 11.3723 5.76347 11.4326 5.81751 11.5044V11.5053ZM6.30166 6.07619C6.452 6.07194 6.60166 6.09788 6.74181 6.15247C6.88195 6.20707 7.00972 6.28921 7.11756 6.39404C7.2254 6.49888 7.31112 6.62428 7.36966 6.76282C7.4282 6.90136 7.45836 7.05023 7.45836 7.20063C7.45836 7.35103 7.4282 7.4999 7.36966 7.63844C7.31112 7.77698 7.2254 7.90238 7.11756 8.00721C7.00972 8.11205 6.88195 8.19419 6.74181 8.24879C6.60166 8.30338 6.452 8.32932 6.30166 8.32507C6.00894 8.31678 5.731 8.19469 5.52689 7.98472C5.32277 7.77475 5.20858 7.49346 5.20858 7.20063C5.20858 6.9078 5.32277 6.62651 5.52689 6.41654C5.731 6.20657 6.00894 6.08447 6.30166 6.07619ZM11.7011 6.07619C11.8515 6.07194 12.0011 6.09788 12.1413 6.15247C12.2814 6.20707 12.4092 6.28921 12.517 6.39404C12.6249 6.49888 12.7106 6.62428 12.7691 6.76282C12.8277 6.90136 12.8578 7.05023 12.8578 7.20063C12.8578 7.35103 12.8277 7.4999 12.7691 7.63844C12.7106 7.77698 12.6249 7.90238 12.517 8.00721C12.4092 8.11205 12.2814 8.19419 12.1413 8.24879C12.0011 8.30338 11.8515 8.32932 11.7011 8.32507C11.4084 8.31678 11.1305 8.19469 10.9263 7.98472C10.7222 7.77475 10.608 7.49346 10.608 7.20063C10.608 6.9078 10.7222 6.62651 10.9263 6.41654C11.1305 6.20657 11.4084 6.08447 11.7011 6.07619Z" fill="white" fill-opacity="0.5"/>
</svg>
