<svg width="94" height="19" viewBox="0 0 94 19" fill="none" xmlns="http://www.w3.org/2000/svg">
<path d="M7 2.5C7.23206 2.5 7.45462 2.59219 7.61872 2.75628C7.78281 2.92038 7.875 3.14294 7.875 3.375V8.625H13.125C13.3571 8.625 13.5796 8.71719 13.7437 8.88128C13.9078 9.04538 14 9.26794 14 9.5C14 9.73206 13.9078 9.95462 13.7437 10.1187C13.5796 10.2828 13.3571 10.375 13.125 10.375H7.875V15.625C7.875 15.8571 7.78281 16.0796 7.61872 16.2437C7.45462 16.4078 7.23206 16.5 7 16.5C6.76794 16.5 6.54538 16.4078 6.38128 16.2437C6.21719 16.0796 6.125 15.8571 6.125 15.625V10.375H0.875C0.642936 10.375 0.420376 10.2828 0.256282 10.1187C0.0921874 9.95462 0 9.73206 0 9.5C0 9.26794 0.0921874 9.04538 0.256282 8.88128C0.420376 8.71719 0.642936 8.625 0.875 8.625H6.125V3.375C6.125 3.14294 6.21719 2.92038 6.38128 2.75628C6.54538 2.59219 6.76794 2.5 7 2.5Z" fill="white" fill-opacity="0.5"/>
<path d="M27.5781 15.1875C30.375 15.1875 32.0469 13.5 32.0469 11.0469V3.72656H30.6406V10.9531C30.6406 12.6875 29.5312 13.8906 27.5781 13.8906C25.625 13.8906 24.5 12.6875 24.5 10.9531V3.72656H23.0938V11.0469C23.0938 13.5 24.7812 15.1875 27.5781 15.1875ZM34.0234 17.7344H35.3828V13.6406H35.4141C35.9219 14.5781 36.8672 15.1562 38.0156 15.1562C40.0547 15.1562 41.4453 13.5078 41.4453 10.9453V10.9375C41.4453 8.375 40.0703 6.71875 37.9922 6.71875C36.8281 6.71875 35.9219 7.30469 35.4141 8.25H35.3828V6.875H34.0234V17.7344ZM37.7266 13.9531C36.3594 13.9531 35.375 12.7578 35.375 10.9453V10.9375C35.375 9.11719 36.3516 7.92188 37.7266 7.92188C39.1641 7.92188 40.0547 9.07031 40.0547 10.9375V10.9453C40.0547 12.7969 39.1641 13.9531 37.7266 13.9531ZM42.8906 15H44.25V3.72656H42.8906V15ZM49.4531 15.1562C51.6953 15.1562 53.2109 13.5312 53.2109 10.9375V10.9219C53.2109 8.32812 51.6875 6.71875 49.4453 6.71875C47.2031 6.71875 45.6875 8.33594 45.6875 10.9219V10.9375C45.6875 13.5234 47.1953 15.1562 49.4531 15.1562ZM49.4609 13.9531C48.0234 13.9531 47.0781 12.8516 47.0781 10.9375V10.9219C47.0781 9.02344 48.0312 7.92188 49.4453 7.92188C50.8828 7.92188 51.8203 9.01562 51.8203 10.9219V10.9375C51.8203 12.8438 50.8906 13.9531 49.4609 13.9531ZM56.9609 15.1562C58.0469 15.1562 59.0234 14.5703 59.5 13.6797H59.5312V15H60.8906V9.38281C60.8906 7.75781 59.6875 6.71875 57.7656 6.71875C55.8516 6.71875 54.6875 7.79688 54.5703 9.13281L54.5625 9.21875H55.875L55.8906 9.14844C56.0469 8.42188 56.7031 7.92188 57.75 7.92188C58.8828 7.92188 59.5312 8.52344 59.5312 9.51562V10.1953L57.2031 10.3281C55.3359 10.4375 54.2578 11.3047 54.2578 12.6875V12.7031C54.2578 14.1797 55.3438 15.1562 56.9609 15.1562ZM55.6484 12.7031V12.6875C55.6484 11.9297 56.2734 11.4453 57.3594 11.3828L59.5312 11.25V11.9141C59.5312 13.0938 58.5469 13.9766 57.2656 13.9766C56.2891 13.9766 55.6484 13.4844 55.6484 12.7031ZM65.6719 15.1562C66.8359 15.1562 67.7422 14.5703 68.25 13.625H68.2812V15H69.6406V3.72656H68.2812V8.23438H68.25C67.7422 7.29688 66.7969 6.71875 65.6484 6.71875C63.6094 6.71875 62.2188 8.36719 62.2188 10.9297V10.9375C62.2188 13.5 63.5938 15.1562 65.6719 15.1562ZM65.9375 13.9531C64.5 13.9531 63.6094 12.8047 63.6094 10.9375V10.9297C63.6094 9.07812 64.5 7.92188 65.9375 7.92188C67.3047 7.92188 68.2891 9.11719 68.2891 10.9297V10.9375C68.2891 12.7578 67.3125 13.9531 65.9375 13.9531ZM75.1953 15H76.5547V8H78.2109V6.875H76.5391V5.88281C76.5391 5.07812 76.9141 4.69531 77.6641 4.69531C77.875 4.69531 78.0859 4.70312 78.25 4.72656V3.625C78.0469 3.59375 77.7266 3.57031 77.4219 3.57031C75.9219 3.57031 75.1953 4.3125 75.1953 5.875V6.875H74.0625V8H75.1953V15ZM80.3828 5.5C80.8594 5.5 81.2344 5.11719 81.2344 4.64844C81.2344 4.17188 80.8594 3.79688 80.3828 3.79688C79.9141 3.79688 79.5312 4.17188 79.5312 4.64844C79.5312 5.11719 79.9141 5.5 80.3828 5.5ZM79.7031 15H81.0625V6.875H79.7031V15ZM82.9844 15H84.3438V3.72656H82.9844V15ZM89.5234 15.1562C91.2969 15.1562 92.625 14.0938 92.8906 12.75L92.9062 12.6719H91.5703L91.5469 12.7422C91.3125 13.4375 90.5859 13.9531 89.5547 13.9531C88.1094 13.9531 87.1875 12.9766 87.1562 11.3047H93.0078V10.8047C93.0078 8.36719 91.6562 6.71875 89.4375 6.71875C87.2188 6.71875 85.7812 8.44531 85.7812 10.9609V10.9688C85.7812 13.5234 87.1875 15.1562 89.5234 15.1562ZM89.4297 7.92188C90.6172 7.92188 91.4922 8.66406 91.625 10.2422H87.1797C87.3281 8.72656 88.25 7.92188 89.4297 7.92188Z" fill="white" fill-opacity="0.5"/>
</svg>
