<svg width="22" height="22" viewBox="0 0 22 22" fill="none" xmlns="http://www.w3.org/2000/svg">
<circle cx="11" cy="11" r="10" fill="white" stroke="#2D3337" stroke-width="2"/>
<path d="M11 2C6.0294 2 2 6.0294 2 11C2 15.9706 6.0294 20 11 20C15.9706 20 20 15.9706 20 11C20 6.0294 15.9706 2 11 2Z" fill="#40B3E0"/>
<path d="M15.3791 7.17727L13.7716 15.2821C13.7716 15.2821 13.5468 15.8442 12.9285 15.5744L9.219 12.7304L7.87012 12.0785L5.59945 11.314C5.59945 11.314 5.25098 11.1904 5.21723 10.9206C5.18348 10.6508 5.6107 10.5047 5.6107 10.5047L14.6371 6.9638C14.6371 6.9638 15.3791 6.63783 15.3791 7.17741" fill="white"/>
<path d="M8.93395 15.191C8.93395 15.191 8.82566 15.1809 8.69066 14.7537C8.55587 14.3265 7.87012 12.0784 7.87012 12.0784L13.322 8.61619C13.322 8.61619 13.6368 8.42508 13.6255 8.61619C13.6255 8.61619 13.6817 8.64994 13.513 8.8073C13.3445 8.96473 9.23031 12.663 9.23031 12.663" fill="#D2E5F1"/>
<path d="M10.6415 13.8206L9.17427 15.1584C9.17427 15.1584 9.05952 15.2455 8.93408 15.1909L9.21505 12.7061" fill="#B5CFE4"/>
</svg>
